<?xml version="1.0" encoding="UTF-8"?>
<svg width="32px" height="32px" viewBox="0 0 32 32" version="1.1" xmlns="http://www.w3.org/2000/svg" xmlns:xlink="http://www.w3.org/1999/xlink">
    <title>编组 36</title>
    <defs>
        <linearGradient x1="37.8444138%" y1="31.0134114%" x2="92.1121878%" y2="93.3931987%" id="linearGradient-1">
            <stop stop-color="#CCCCCC" offset="0%"></stop>
            <stop stop-color="#FFFFFF" offset="100%"></stop>
        </linearGradient>
        <linearGradient x1="50%" y1="4.73926454e-13%" x2="50%" y2="100%" id="linearGradient-2">
            <stop stop-color="#FFFFFF" offset="0%"></stop>
            <stop stop-color="#FFFFFF" stop-opacity="0.8" offset="100%"></stop>
        </linearGradient>
    </defs>
    <g id="视觉稿" stroke="none" stroke-width="1" fill="none" fill-rule="evenodd">
        <g id="首页（新的小调整）" transform="translate(-156, -6303)">
            <g id="编组-106" transform="translate(0, 5654)">
                <g id="编组-33" transform="translate(120, 613)">
                    <g id="编组-39" transform="translate(28, 28)">
                        <g id="编组-36" transform="translate(8, 8)">
                            <rect id="矩形" x="0" y="0" width="32" height="32"></rect>
                            <g id="logo" transform="translate(2, 2)" fill-rule="nonzero">
                                <g id="2">
                                    <path d="M12.8055371,0.498446276 L13.7208195,3.87488578 C13.8855315,3.71020725 14.1355154,3.71020725 14.3002274,3.87488578 L18.212799,7.78666292 C18.8054568,8.37920041 19.7663451,8.37920041 20.3590029,7.78666292 C20.9516607,7.19412544 20.9516607,6.23343236 20.3590029,5.64089488 L15.1984941,0.481426613 C14.534013,-0.165884918 13.4647618,-0.160644555 12.8055371,0.498446276 Z" id="Shape" fill="url(#linearGradient-1)"></path>
                                    <path d="M12.8055371,0.498446276 C13.4647618,-0.160644555 14.534013,-0.165884918 15.1984941,0.481426613 L15.7067352,0.98931965 C15.7882089,1.07073865 15.8680659,1.15054273 15.9463063,1.22873189 L16.9986669,2.28045037 C17.1228156,2.40453031 17.2404978,2.52215057 17.3517136,2.63331115 L17.6659616,2.94741387 C17.715103,2.99653448 17.7626278,3.04404018 17.8085361,3.08993095 L18.1780616,3.45934511 C17.3115207,2.78650236 16.5130967,2.5123586 15.7827897,2.6369138 C14.8001142,2.80451091 14.1309469,3.5210985 13.7208195,3.87488578 L3.89103274,13.7026765 C3.72632078,13.867355 3.72632078,14.1172881 3.89103274,14.2819666 L13.7208195,24.1097574 C13.8855315,24.2744359 14.1355154,24.2744359 14.3002274,24.1097574 L18.212799,20.1979803 C18.8054568,19.6054427 19.7663451,19.6054427 20.3590029,20.1979803 C20.9516607,20.7905177 20.9516607,21.7512108 20.3590029,22.3437482 L15.1979251,27.5037779 C14.5361613,28.1654074 13.4673009,28.1654074 12.8055371,27.5037779 L0.49632288,15.1970632 C-0.16544096,14.5354337 -0.16544096,13.4667904 0.49632288,12.8051609 Z M14.0632772,10.7398327 C15.8987888,10.7398327 17.386765,12.2275067 17.386765,14.0626456 C17.386765,15.8977845 15.8987888,17.3854586 14.0632772,17.3854586 C12.2277656,17.3854586 10.7397894,15.8977845 10.7397894,14.0626456 C10.7397894,12.2275067 12.2277656,10.7398327 14.0632772,10.7398327 Z M21.5503996,19.0534483 C22.1430574,19.6459857 23.1039455,19.6459857 23.6966034,19.0534483 L27.5036674,15.2471572 C28.1654313,14.5855278 28.1654313,13.5168843 27.5037449,12.8553321 L23.6634931,9.02947536 C23.0694322,8.43764121 22.108239,8.43849467 21.5152304,9.03138284 C20.9225725,9.62392032 20.9225725,10.5846134 21.5152304,11.1771509 L24.1089577,13.7703515 C24.2736696,13.93503 24.2736696,14.1849632 24.1089577,14.3496417 L21.5503996,16.9076802 C20.9577416,17.5002176 20.9577416,18.4609107 21.5503996,19.0534483 Z" id="形状结合" fill="url(#linearGradient-2)"></path>
                                </g>
                            </g>
                        </g>
                    </g>
                </g>
            </g>
        </g>
    </g>
</svg>